<svg width="99" height="80" viewBox="0 0 99 80" fill="none" xmlns="http://www.w3.org/2000/svg">
<path d="M1.30005 41.48C2.09196 41.0556 3.46681 40.7903 5.319 40.7903C7.22179 40.7903 8.54384 41.0556 9.28516 41.48V78.3C8.54604 78.7245 7.22399 78.9897 5.319 78.9897C3.46901 78.9897 2.09416 78.7245 1.30005 78.3V41.48Z" fill="#18145A"/>
<path d="M19.4348 41.4269C22.2373 40.7903 26.5731 40.4167 30.4842 40.4167C41.0584 40.4167 47.4025 43.9227 47.4025 52.8492C47.4025 58.3205 45.0752 61.9348 41.428 63.9001L50.2578 78.2448C49.5715 78.7223 48.0911 78.9875 46.0277 78.9875C43.7003 78.9875 42.1693 78.7223 41.0584 78.2448L33.7091 65.8122H32.8622C31.065 65.8122 28.6848 65.6531 27.4178 65.4409V78.2978C26.6786 78.7222 25.3566 78.9875 23.4516 78.9875C21.6016 78.9875 20.2268 78.7222 19.4326 78.2978V41.4269H19.4348ZM27.365 47.5901V58.6941C28.423 58.9063 30.3786 59.0654 31.9119 59.0654C36.5115 59.0654 39.314 57.4185 39.314 53.2736C39.314 49.0226 36.3532 47.2696 31.0671 47.2696C29.7979 47.2718 28.5286 47.3779 27.365 47.5901Z" fill="#18145A"/>
<path d="M56.8659 41.48C57.66 41.0556 59.0326 40.7903 60.8848 40.7903C62.7876 40.7903 64.1097 41.0556 64.851 41.48V78.3C64.1097 78.7245 62.7898 78.9897 60.8848 78.9897C59.0348 78.9897 57.66 78.7245 56.8659 78.3V41.48Z" fill="#18145A"/>
<path d="M84.5168 73.2001C89.2221 73.2001 91.0721 71.3941 91.0721 68.5777C91.0721 60.7676 73.4674 64.9656 73.4674 51.3637C73.4674 43.7658 78.4367 39.78 86.578 39.78C90.1196 39.78 93.1332 40.5228 95.8829 42.1189C97.0466 44.031 97.6273 47.0596 97.3106 49.4515C94.4553 47.6985 90.7553 46.476 87.1587 46.476C83.2453 46.476 81.5009 47.9107 81.5009 50.3534C81.5009 57.686 99 53.8064 99 67.5675C99 76.9184 92.6031 80 84.6202 80C80.7068 80 77.0068 79.255 74.0988 77.8756C72.8295 75.8042 72.3544 72.4574 72.6711 70.1716C75.5836 71.9246 80.6056 73.2001 84.5168 73.2001Z" fill="#18145A"/>
<path d="M91.9454 12.4303C90.7179 12.4303 89.7214 13.4317 89.7214 14.6652V31.5875C89.7214 32.821 90.7179 33.8224 91.9454 33.8224C93.1729 33.8224 94.1693 32.821 94.1693 31.5875V14.6652C94.1672 13.4317 93.1729 12.4303 91.9454 12.4303Z" fill="url(#paint0_linear_68_2019)"/>
<path d="M82.3082 5.91782C81.0808 5.91782 80.0843 6.91923 80.0843 8.15275V21.1445C80.0843 22.3781 81.0808 23.3795 82.3082 23.3795C83.5357 23.3795 84.5322 22.3781 84.5322 21.1445V8.15275C84.5322 6.91923 83.5357 5.91782 82.3082 5.91782Z" fill="url(#paint1_linear_68_2019)"/>
<path d="M6.35509 12.4303C5.12762 12.4303 4.13113 13.4317 4.13113 14.6652V31.5875C4.13113 32.821 5.12762 33.8224 6.35509 33.8224C7.58255 33.8224 8.57904 32.821 8.57904 31.5875V14.6652C8.57904 13.4317 7.58255 12.4303 6.35509 12.4303Z" fill="url(#paint2_linear_68_2019)"/>
<path d="M15.9922 5.91782C14.7648 5.91782 13.7683 6.91923 13.7683 8.15275V21.1445C13.7683 22.3781 14.7648 23.3795 15.9922 23.3795C17.2197 23.3795 18.2162 22.3781 18.2162 21.1445V8.15275C18.2162 6.91923 17.2197 5.91782 15.9922 5.91782Z" fill="url(#paint3_linear_68_2019)"/>
<path d="M48.9688 27.2392C54.2134 27.2392 58.4651 22.9665 58.4651 17.696C58.4651 12.4254 54.2134 8.15274 48.9688 8.15274C43.7241 8.15274 39.4724 12.4254 39.4724 17.696C39.4724 22.9665 43.7241 27.2392 48.9688 27.2392Z" fill="url(#paint4_radial_68_2019)"/>
<path d="M48.9688 8.11517C47.7413 8.11517 46.7448 9.11658 46.7448 10.3501C46.7448 11.5836 47.7413 12.585 48.9688 12.585C53.9776 12.585 58.0515 16.6791 58.0515 21.7127C58.0515 26.7463 53.9776 30.8403 48.9688 30.8403C47.7413 30.8403 46.7448 31.8417 46.7448 33.0752C46.7448 34.3088 47.7413 35.3102 48.9688 35.3102C56.4303 35.3102 62.4995 29.2111 62.4995 21.7127C62.4995 14.2143 56.4303 8.11517 48.9688 8.11517Z" fill="#8248FF"/>
<path d="M49.8113 0.431073C49.0832 0.431073 48.3748 0.0574785 47.6775 0.17022C41.23 1.20258 36.285 6.8308 36.285 13.5975C36.285 21.0959 42.3541 27.195 49.8157 27.195C51.0431 27.195 52.0396 26.1936 52.0396 24.9601C52.0396 23.7265 51.0431 22.7251 49.8157 22.7251C44.8068 22.7251 40.7329 18.6311 40.7329 13.5975C40.7329 8.80267 44.4329 4.85673 49.1139 4.4964C49.3449 4.47871 49.6463 4.48976 49.8817 4.48976C51.1091 4.48976 52.0374 3.46846 52.0374 2.23493C52.0374 1.00141 51.0387 0.431073 49.8113 0.431073Z" fill="#7499F8"/>
<path d="M95.7224 35.308C95.7202 35.308 95.7202 35.308 95.718 35.308C94.2771 35.308 92.7945 35.1355 91.314 34.7929C82.1521 32.684 76.3249 25.6763 70.6913 18.8986C64.521 11.4775 58.6939 4.46987 48.971 4.46987C46.9494 4.46987 44.8288 4.92083 42.6687 5.80729C37.475 7.94053 33.4297 12.1783 29.3756 16.9068C28.9642 16.4205 28.5506 15.9319 28.1349 15.4389C27.5784 14.7802 27.0218 14.1192 26.4609 13.4627C30.625 8.65235 35.1125 4.08301 40.9859 1.66902C43.6806 0.561497 46.3665 0 48.9688 0C60.7705 0 67.5479 8.15054 74.101 16.0336C79.5014 22.5284 84.6026 28.6629 92.3039 30.438C93.461 30.7033 94.6093 30.8403 95.7158 30.8403C95.718 30.8403 95.718 30.8403 95.7202 30.8403C96.9476 30.8403 97.9441 31.8395 97.9441 33.0752C97.9463 34.3066 96.9498 35.308 95.7224 35.308Z" fill="#7499F8"/>
<path d="M2.22395 30.8381C10.8954 30.8381 16.5862 25.0441 22.2593 18.4034C22.5915 18.7969 22.9259 19.1904 23.2602 19.5883C23.8937 20.3399 24.5317 21.0959 25.1762 21.8475C19.1555 28.8397 12.5628 35.308 2.22395 35.308C0.996489 35.308 0 34.3088 0 33.073C0 31.8373 0.996489 30.8381 2.22395 30.8381Z" fill="#7499F8"/>
<path d="M25.6008 13.9534C25.6469 14.0065 25.6931 14.0617 25.7393 14.1148C26.2695 14.736 26.7952 15.3594 27.321 15.9828C27.3452 16.0115 27.3694 16.0402 27.3936 16.069C27.8599 16.6216 28.3241 17.1721 28.7882 17.7159L29.3711 18.4034L29.3733 18.4012C33.4275 23.1297 37.475 27.3696 42.6687 29.5029C44.8288 30.3893 46.9494 30.8403 48.971 30.8403C57.8118 30.8403 63.4322 25.0441 69.0195 18.4122C69.3275 18.7814 69.6377 19.1528 69.9478 19.5264C70.6012 20.3111 71.2567 21.1003 71.921 21.8851C65.9949 28.8596 59.4726 35.3102 48.9732 35.3124C46.3708 35.3124 43.6849 34.7509 40.988 33.6434C33.9444 30.7497 28.8916 24.7567 24.0037 18.9627C17.7168 11.5085 11.7819 4.46987 2.22395 4.46987C0.996489 4.46987 0 3.46846 0 2.23493C0 1.00141 0.996489 0 2.22395 0C12.7476 0 19.3908 6.70259 25.5018 13.8362L25.6008 13.9534Z" fill="#8248FF"/>
<path d="M95.7223 4.46987C94.6137 4.46987 93.4654 4.60471 92.3061 4.8722C85.5529 6.42626 80.7992 11.336 76.0895 16.9002C75.676 16.4072 75.2624 15.9098 74.8467 15.4102C74.2967 14.7492 73.7468 14.0883 73.1902 13.4273C78.1045 7.68189 83.4939 2.31452 91.3118 0.512863C92.7967 0.172428 94.2793 0 95.7223 0C96.9498 0 97.9463 1.00141 97.9463 2.23493C97.9463 3.46846 96.9498 4.46987 95.7223 4.46987Z" fill="#8248FF"/>
<path d="M2.22395 30.8381C10.8954 30.8381 16.5862 25.0441 22.2593 18.4034C22.5915 18.7969 22.9259 19.1904 23.2602 19.5883C23.8937 20.3399 24.5317 21.0959 25.1762 21.8475C19.1555 28.8397 12.5628 35.308 2.22395 35.308C0.996489 35.308 0 34.3088 0 33.073C0 31.8373 0.996489 30.8381 2.22395 30.8381Z" fill="#7499F8"/>
<defs>
<linearGradient id="paint0_linear_68_2019" x1="91.9444" y1="12.4312" x2="91.9444" y2="33.8222" gradientUnits="userSpaceOnUse">
<stop offset="0.2267" stop-color="#8248FF"/>
<stop offset="0.7149" stop-color="#7499F8"/>
</linearGradient>
<linearGradient id="paint1_linear_68_2019" x1="82.3082" y1="5.91848" x2="82.3082" y2="23.3807" gradientUnits="userSpaceOnUse">
<stop offset="0.4652" stop-color="#8248FF"/>
<stop offset="0.8537" stop-color="#7499F8"/>
</linearGradient>
<linearGradient id="paint2_linear_68_2019" x1="6.35546" y1="12.4312" x2="6.35546" y2="33.8222" gradientUnits="userSpaceOnUse">
<stop offset="0.2267" stop-color="#8248FF"/>
<stop offset="0.7149" stop-color="#7499F8"/>
</linearGradient>
<linearGradient id="paint3_linear_68_2019" x1="15.9914" y1="5.91848" x2="15.9914" y2="23.3807" gradientUnits="userSpaceOnUse">
<stop offset="0.4652" stop-color="#8248FF"/>
<stop offset="0.8537" stop-color="#7499F8"/>
</linearGradient>
<radialGradient id="paint4_radial_68_2019" cx="0" cy="0" r="1" gradientUnits="userSpaceOnUse" gradientTransform="translate(50.0946 24.8416) scale(15.6622 15.7395)">
<stop offset="0.1942" stop-color="#7499F8"/>
<stop offset="0.6277" stop-color="#8248FF"/>
</radialGradient>
</defs>
</svg>
